<?xml version="1.0" encoding="iso-8859-1"?>
<!-- Generator: Adobe Illustrator 19.0.0, SVG Export Plug-In . SVG Version: 6.00 Build 0)  -->
<svg version="1.1" id="Capa_1" xmlns="http://www.w3.org/2000/svg" xmlns:xlink="http://www.w3.org/1999/xlink" x="0px" y="0px"
	 viewBox="0 0 463.003 463.003" style="enable-background:new 0 0 463.003 463.003;" xml:space="preserve">
<g>
	<path d="M346.777,45.98C313.12,14.043,268.973-2.202,222.482,0.24c-41.92,2.2-81.372,20.344-111.088,51.087
		c-29.703,30.73-46.522,70.777-47.358,112.763c-0.637,31.984,7.766,63.24,24.3,90.391c16.051,26.356,39.013,47.765,66.404,61.912
		c13.115,6.773,21.262,20.398,21.262,35.557v41.829c0,19.943,9.627,35.713,24.313,42.116c2.144,15.297,15.309,27.108,31.187,27.108
		c15.854,0,29.003-11.775,31.178-27.037c14.268-5.961,24.322-20.059,24.322-36.463v-47.516c0-15.167,8.196-28.832,21.389-35.66
		c55.891-28.926,90.611-85.952,90.611-148.824C399.001,121.094,380.454,77.936,346.777,45.98z M255.39,304.003h-47.778
		l-19.959-104.786c6.975,0.734,10.914,3.344,15.688,6.527c6.51,4.34,13.889,9.26,28.16,9.26s21.65-4.919,28.16-9.26
		c4.774-3.183,8.713-5.792,15.688-6.527L255.39,304.003z M210.47,319.003h42.063l-3.238,17h-35.587L210.47,319.003z M207.46,351.003
		c0.011,0,0.022,0.001,0.033,0.001c0.01,0,0.021-0.001,0.031-0.001h47.954c0.01,0,0.021,0.001,0.031,0.001
		c0.011,0,0.022-0.001,0.033-0.001h16.475c-0.006,0.328-0.017,0.655-0.017,0.984v6.704l-81,11.932V351.95
		c0-0.317-0.011-0.631-0.016-0.947H207.46z M191.001,393.778v-7.993l81-11.932v17.183l-80.086,11.798
		C191.319,400.025,191.001,396.998,191.001,393.778z M231.501,448.003c-6.396,0-11.942-3.666-14.679-9h29.357
		C243.443,444.337,237.898,448.003,231.501,448.003z M247.501,424.003h-32c-6.703,0-12.395-2.548-16.604-7.036l72.126-10.625
		C268.054,416.532,258.637,424.003,247.501,424.003z M301.495,303.006c-13.366,6.918-23.005,18.887-27.183,32.997h-9.748
		l30.304-159.097c0.775-4.069-1.896-7.996-5.964-8.771c-4.072-0.775-7.996,1.896-8.771,5.964l-1.892,9.931
		c-13.439,0.284-20.588,5.024-26.901,9.232c-5.649,3.766-10.111,6.74-19.84,6.74s-14.191-2.975-19.84-6.74
		c-6.313-4.209-13.462-8.948-26.901-9.232l-1.892-9.931c-0.775-4.069-4.706-6.74-8.771-5.964c-4.069,0.775-6.739,4.702-5.964,8.771
		l30.304,159.097h-9.73c-4.157-14.108-13.762-26.057-27.085-32.938c-24.945-12.883-45.857-32.381-60.476-56.386
		c-15.047-24.709-22.694-53.165-22.114-82.29c0.761-38.188,16.083-74.638,43.146-102.637C149.25,33.746,185.151,17.22,223.268,15.22
		c2.784-0.146,5.551-0.219,8.313-0.219c39.269,0,76.243,14.696,104.871,41.86c30.662,29.095,47.549,68.389,47.549,110.642
		C384.001,224.746,352.387,276.667,301.495,303.006z"/>
	<path d="M282.28,41.841c-5.489-2.22-11.178-4.094-16.909-5.568c-4.01-1.035-8.101,1.382-9.132,5.394
		c-1.032,4.011,1.383,8.1,5.394,9.132c5.092,1.311,10.146,2.975,15.023,4.947c0.921,0.373,1.873,0.549,2.81,0.549
		c2.966,0,5.775-1.771,6.955-4.69C287.974,47.766,286.12,43.394,282.28,41.841z"/>
	<path d="M316.197,61.729c-3.233-2.592-7.953-2.071-10.543,1.16c-2.591,3.232-2.071,7.952,1.16,10.543
		c28.717,23.022,45.188,57.31,45.188,94.071c0,7.6-0.711,15.203-2.115,22.6c-0.772,4.07,1.901,7.995,5.971,8.767
		c0.473,0.089,0.942,0.133,1.406,0.133c3.532,0,6.678-2.506,7.36-6.104c1.578-8.316,2.377-16.861,2.377-25.396
		C367.001,126.166,348.484,87.613,316.197,61.729z"/>
</g>
<g>
</g>
<g>
</g>
<g>
</g>
<g>
</g>
<g>
</g>
<g>
</g>
<g>
</g>
<g>
</g>
<g>
</g>
<g>
</g>
<g>
</g>
<g>
</g>
<g>
</g>
<g>
</g>
<g>
</g>
</svg>
